<svg xmlns="http://www.w3.org/2000/svg" xmlns:xlink="http://www.w3.org/1999/xlink" width="500" zoomAndPan="magnify" viewBox="0 0 375 374.999991" height="500" preserveAspectRatio="xMidYMid meet" version="1.0"><defs><g/></defs><g fill="#000000" fill-opacity="1"><g transform="translate(113.946571, 196.570382)"><g><path d="M -0.390625 -11.1875 L -0.425781 -12.261719 L -10.792969 -11.898438 L -10.738281 -10.335938 L -1.722656 -6.808594 L -10.472656 -2.617188 L -10.417969 -1.082031 L -0.0507812 -1.441406 L -0.0859375 -2.515625 L -8.90625 -2.207031 L -0.222656 -6.34375 L -0.253906 -7.320312 L -9.273438 -10.867188 L -9.273438 -10.878906 Z M -0.390625 -11.1875 "/></g></g></g><g fill="#000000" fill-opacity="1"><g transform="translate(114.392535, 175.507225)"><g><path d="M 0.257812 -1.125 L -2.070312 -2.828125 L -0.804688 -8.339844 L 2.03125 -8.84375 L 2.289062 -9.96875 L -8.824219 -7.925781 L -9.097656 -6.726562 L 0.0078125 -0.0390625 Z M -1.867188 -8.148438 L -2.945312 -3.449219 L -7.867188 -7.054688 Z M -1.867188 -8.148438 "/></g></g></g><g fill="#000000" fill-opacity="1"><g transform="translate(119.291453, 158.440779)"><g><path d="M -6.765625 -7.46875 L 1.644531 -3.371094 L 2.125 -4.359375 L -6.28125 -8.457031 L -4.765625 -11.566406 L -5.683594 -12.011719 L -9.203125 -4.796875 L -8.285156 -4.351562 Z M -6.765625 -7.46875 "/></g></g></g><g fill="#000000" fill-opacity="1"><g transform="translate(127.086823, 144.322968)"><g><path d="M -4.996094 -8.75 L 2.332031 -2.9375 L 3.015625 -3.796875 L -4.3125 -9.613281 L -2.160156 -12.320312 L -2.960938 -12.957031 L -7.953125 -6.667969 L -7.152344 -6.03125 Z M -4.996094 -8.75 "/></g></g></g><g fill="#000000" fill-opacity="1"><g transform="translate(137.644481, 132.197911)"><g><path d="M 1.988281 -1.566406 L -0.949219 -5.292969 L 3.691406 -8.949219 L 6.628906 -5.222656 L 7.480469 -5.894531 L 1.058594 -14.042969 L 0.207031 -13.371094 L 3.042969 -9.769531 L -1.597656 -6.113281 L -4.433594 -9.714844 L -5.285156 -9.042969 L 1.132812 -0.894531 Z M 1.988281 -1.566406 "/></g></g></g><g fill="#000000" fill-opacity="1"><g transform="translate(152.721188, 121.588273)"><g><path d="M 3.265625 -11.835938 L 2.84375 -12.746094 L -3.046875 -10.019531 L 1.308594 -0.605469 L 7.25 -3.355469 L 6.824219 -4.269531 L 1.875 -1.976562 L 0.292969 -5.390625 L 4.777344 -7.46875 L 4.351562 -8.382812 L -0.132812 -6.304688 L -1.640625 -9.5625 Z M 3.265625 -11.835938 "/></g></g></g><g fill="#000000" fill-opacity="1"><g transform="translate(167.65049, 115.281707)"><g><path d="M -0.296875 -10.480469 L -1.421875 -10.28125 L 3.5625 -0.621094 L 4.738281 -0.828125 L 5.945312 -10.078125 L 10.207031 -1.785156 L 11.40625 -1.992188 L 12.832031 -12.773438 L 11.746094 -12.582031 L 10.582031 -3.394531 L 10.558594 -3.390625 L 6.320312 -11.636719 L 5.105469 -11.421875 L 3.917969 -2.285156 L 3.890625 -2.28125 Z M -0.296875 -10.480469 "/></g></g></g><g fill="#000000" fill-opacity="1"><g transform="translate(190.16934, 112.875113)"><g/></g></g><g fill="#000000" fill-opacity="1"><g transform="translate(201.451174, 113.900838)"><g><path d="M 2.449219 0.640625 L 3.652344 -3.945312 L 9.367188 -2.445312 L 8.164062 2.140625 L 9.214844 2.417969 L 11.84375 -7.617188 L 10.792969 -7.894531 L 9.632812 -3.460938 L 3.917969 -4.957031 L 5.078125 -9.390625 L 4.027344 -9.667969 L 1.398438 0.367188 Z M 2.449219 0.640625 "/></g></g></g><g fill="#000000" fill-opacity="1"><g transform="translate(219.003349, 119.538538)"><g><path d="M 11.410156 -4.527344 L 11.886719 -5.414062 L 6.15625 -8.472656 L 1.273438 0.679688 L 7.046875 3.761719 L 7.523438 2.871094 L 2.707031 0.304688 L 4.476562 -3.015625 L 8.835938 -0.691406 L 9.3125 -1.578125 L 4.953125 -3.90625 L 6.640625 -7.070312 Z M 11.410156 -4.527344 "/></g></g></g><g fill="#000000" fill-opacity="1"><g transform="translate(232.999271, 127.91587)"><g><path d="M 4.664062 -1.511719 L 6.265625 -0.125 L 5.824219 5.054688 L 6.824219 5.921875 L 7.277344 0.507812 C 8.578125 1.375 10.210938 1.476562 11.375 0.136719 C 12.433594 -1.085938 12.511719 -2.875 10.601562 -4.535156 L 7.890625 -6.886719 L 1.089844 0.945312 L 1.910156 1.660156 Z M 5.316406 -2.261719 L 8.042969 -5.40625 L 9.882812 -3.808594 C 11.375 -2.511719 11.183594 -1.324219 10.515625 -0.554688 C 9.832031 0.234375 8.558594 0.550781 7.136719 -0.683594 Z M 5.316406 -2.261719 "/></g></g></g><g fill="#000000" fill-opacity="1"><g transform="translate(245.281411, 139.715486)"><g><path d="M 4.886719 -0.414062 L 6.128906 1.304688 L 4.519531 6.246094 L 5.296875 7.320312 L 6.96875 2.152344 C 8.039062 3.289062 9.605469 3.757812 11.042969 2.71875 C 12.355469 1.769531 12.839844 0.046875 11.355469 -2.003906 L 9.25 -4.914062 L 0.847656 1.167969 L 1.484375 2.050781 Z M 5.691406 -0.996094 L 9.058594 -3.433594 L 10.488281 -1.460938 C 11.648438 0.140625 11.195312 1.253906 10.367188 1.851562 C 9.519531 2.464844 8.207031 2.480469 7.105469 0.957031 Z M 5.691406 -0.996094 "/></g></g></g><g fill="#000000" fill-opacity="1"><g transform="translate(254.544909, 154.028378)"><g><path d="M 11.722656 3.640625 L 12.652344 3.246094 L 10.113281 -2.730469 L 0.566406 1.328125 L 3.125 7.351562 L 4.050781 6.957031 L 1.917969 1.933594 L 5.378906 0.464844 L 7.3125 5.011719 L 8.238281 4.617188 L 6.304688 0.0703125 L 9.609375 -1.335938 Z M 11.722656 3.640625 "/></g></g></g><g fill="#000000" fill-opacity="1"><g transform="translate(260.181072, 169.333491)"><g><path d="M 4.582031 1.75 L 4.953125 3.835938 L 1.359375 7.589844 L 1.59375 8.894531 L 5.34375 4.964844 C 5.8125 6.457031 7.019531 7.558594 8.769531 7.246094 C 10.359375 6.960938 11.542969 5.617188 11.097656 3.125 L 10.464844 -0.40625 L 0.253906 1.421875 L 0.445312 2.492188 Z M 5.558594 1.574219 L 9.652344 0.839844 L 10.082031 3.242188 C 10.429688 5.183594 9.539062 5.988281 8.535156 6.167969 C 7.503906 6.355469 6.316406 5.800781 5.984375 3.949219 Z M 5.558594 1.574219 "/></g></g></g><g fill="#000000" fill-opacity="1"><g transform="translate(262.354114, 186.214095)"><g><path d="M -0.0664062 1.152344 L 2.515625 2.4375 L 2.195312 8.085938 L -0.515625 9.058594 L -0.582031 10.210938 L 10.03125 6.328125 L 10.101562 5.097656 L -0.00390625 0.0390625 Z M 3.210938 7.71875 L 3.484375 2.90625 L 8.941406 5.628906 Z M 3.210938 7.71875 "/></g></g></g><g fill="#000000" fill-opacity="1"><g transform="translate(124.329442, 242.454801)"><g><path d="M 12.242188 -0.925781 L 12.957031 -1.632812 L 8.402344 -6.253906 L 1.015625 1.027344 L 5.609375 5.6875 L 6.324219 4.980469 L 2.492188 1.09375 L 5.171875 -1.546875 L 8.640625 1.972656 L 9.359375 1.265625 L 5.890625 -2.253906 L 8.445312 -4.773438 Z M 12.242188 -0.925781 "/></g></g></g><g fill="#000000" fill-opacity="1"><g transform="translate(137.828872, 254.765049)"><g><path d="M 8.402344 5.226562 L 13.882812 -3.582031 L 12.972656 -4.148438 L 8.394531 3.207031 L 7.773438 -7.382812 L 6.703125 -8.046875 L 1.226562 0.761719 L 2.136719 1.328125 L 6.804688 -6.175781 L 7.414062 4.609375 Z M 8.402344 5.226562 "/></g></g></g><g fill="#000000" fill-opacity="1"><g transform="translate(156.161252, 264.746732)"><g><path d="M 12.273438 -3.84375 C 12.242188 -5.476562 11.25 -7.453125 8.800781 -8.222656 C 5.953125 -9.113281 3.121094 -7.558594 2.226562 -4.703125 C 1.335938 -1.871094 2.597656 0.925781 5.59375 1.867188 C 8.476562 2.769531 10.851562 1.304688 11.636719 -1.195312 L 11.753906 -1.574219 L 6.507812 -3.222656 L 6.207031 -2.261719 L 10.339844 -0.964844 C 9.636719 0.882812 7.679688 1.449219 5.925781 0.898438 C 3.507812 0.144531 2.613281 -2.179688 3.320312 -4.429688 C 4.070312 -6.820312 6.339844 -7.910156 8.464844 -7.246094 C 10.539062 -6.59375 11.15625 -5.027344 11.203125 -3.707031 Z M 12.273438 -3.84375 "/></g></g></g><g fill="#000000" fill-opacity="1"><g transform="translate(176.232779, 269.641825)"><g><path d="M 2.519531 0.25 L 3.539062 -10.074219 L 2.457031 -10.179688 L 1.4375 0.140625 Z M 2.519531 0.25 "/></g></g></g><g fill="#000000" fill-opacity="1"><g transform="translate(189.540722, 270.37032)"><g><path d="M 9.839844 -1.058594 L 8.730469 -11.371094 L 7.664062 -11.257812 L 8.589844 -2.640625 L 1.578125 -10.601562 L 0.328125 -10.46875 L 1.4375 -0.152344 L 2.503906 -0.269531 L 1.558594 -9.054688 L 8.679688 -0.933594 Z M 9.839844 -1.058594 "/></g></g></g><g fill="#000000" fill-opacity="1"><g transform="translate(210.038736, 266.894291)"><g><path d="M 4.320312 -11.492188 L 3.984375 -12.4375 L -2.128906 -10.253906 L 1.359375 -0.484375 L 7.523438 -2.6875 L 7.183594 -3.636719 L 2.042969 -1.800781 L 0.777344 -5.34375 L 5.433594 -7.003906 L 5.09375 -7.953125 L 0.441406 -6.289062 L -0.769531 -9.671875 Z M 4.320312 -11.492188 "/></g></g></g><g fill="#000000" fill-opacity="1"><g transform="translate(226.790929, 259.812018)"><g><path d="M 1.710938 -12.15625 L 1.171875 -13.007812 L -4.316406 -9.542969 L 1.222656 -0.769531 L 6.753906 -4.265625 L 6.21875 -5.117188 L 1.601562 -2.203125 L -0.40625 -5.382812 L 3.773438 -8.023438 L 3.234375 -8.871094 L -0.945312 -6.234375 L -2.859375 -9.269531 Z M 1.710938 -12.15625 "/></g></g></g><g fill="#000000" fill-opacity="1"><g transform="translate(241.624995, 249.249074)"><g><path d="M -1.191406 -4.757812 L 0.304688 -6.257812 L 5.441406 -5.464844 L 6.375 -6.402344 L 1.003906 -7.226562 C 1.957031 -8.464844 2.167969 -10.085938 0.910156 -11.335938 C -0.234375 -12.476562 -2.015625 -12.679688 -3.800781 -10.886719 L -6.332031 -8.339844 L 1.019531 -1.023438 L 1.785156 -1.792969 Z M -1.894531 -5.457031 L -4.84375 -8.390625 L -3.125 -10.121094 C -1.730469 -11.519531 -0.558594 -11.25 0.164062 -10.53125 C 0.90625 -9.792969 1.132812 -8.5 -0.195312 -7.167969 Z M -1.894531 -5.457031 "/></g></g></g><g fill="#000000" fill-opacity="1"><g transform="translate(199.89389, 206.464903)"><g><path d="M 37.203125 0 L 31.875 0 L 31.875 -17.421875 L 11.046875 -17.421875 L 11.046875 0 L 5.71875 0 L 5.71875 -39.734375 L 11.046875 -39.734375 L 11.046875 -22.53125 L 31.875 -22.53125 L 31.875 -39.734375 L 37.203125 -39.734375 Z M 37.203125 0 "/></g></g></g><g fill="#000000" fill-opacity="1"><g transform="translate(128.49195, 206.464903)"><g><path d="M 45.21875 -41 L 45.21875 0 L 39.953125 0 L 39.953125 -25.71875 L 25.328125 -5 L 25.21875 -5 L 10.875 -25 L 10.875 0 L 5.71875 0 L 5.71875 -41 L 5.765625 -41 L 25.328125 -13.296875 L 45.171875 -41 Z M 45.21875 -41 "/></g></g></g><path stroke-linecap="butt" transform="matrix(0, -0.75, 0.75, 0, 186.746858, 231.803538)" fill="none" stroke-linejoin="miter" d="M -0.00153216 0.998981 L 118.149517 0.998981 " stroke="#000000" stroke-width="2" stroke-opacity="1" stroke-miterlimit="4"/></svg>